<svg id="Layer_1" data-name="Layer 1" xmlns="http://www.w3.org/2000/svg" viewBox="0 0 720 360"><title>large-image-new1</title><rect width="720" height="360" fill="#ddd"/><rect y="30" width="720" height="300" fill="#bbb"/><text transform="translate(219.90082 191.20282)" font-size="42" fill="#231f20" font-family="Arial">Main Content</text><text transform="translate(9.99987 186.40137)" font-size="24" fill="#444" font-family="Arial">300 pixels</text><polygon points="65.621 160.239 65.621 52.988 77.189 52.988 64.035 30.203 50.881 52.988 62.448 52.988 62.448 160.239 65.621 160.239" fill="#797979"/><polygon points="62.449 199.964 62.449 307.215 50.881 307.215 64.035 330 77.189 307.215 65.622 307.215 65.622 199.964 62.449 199.964" fill="#797979"/><text transform="translate(601.04724 186.40137)" font-size="24" fill="#444" font-family="Arial">360 pixels</text><polygon points="656.668 160.239 656.668 22.785 668.236 22.785 655.083 0 641.928 22.785 653.495 22.785 653.495 160.239 656.668 160.239" fill="#797979"/><polygon points="653.497 199.964 653.497 337.215 641.928 337.215 655.082 360 668.236 337.215 656.67 337.215 656.67 199.964 653.497 199.964" fill="#797979"/><polygon points="295 59.748 22.785 59.748 22.785 48.179 0 61.333 22.785 74.487 22.785 62.92 295 62.92 295 59.748" fill="#797979"/><polygon points="425 62.919 697.215 62.919 697.215 74.487 720 61.334 697.215 48.179 697.215 59.746 425 59.746 425 62.919" fill="#797979"/><text transform="translate(305.96457 69.06804)" font-size="24" fill="#444" font-family="Arial">720 pixels</text></svg>